<svg id="visual" viewBox="0 0 960 540" width="960" height="540" xmlns="http://www.w3.org/2000/svg" xmlns:xlink="http://www.w3.org/1999/xlink" version="1.1"><path d="M0 114L87 158L175 201L262 104L349 212L436 104L524 179L611 163L698 98L785 163L873 244L960 190L960 0L873 0L785 0L698 0L611 0L524 0L436 0L349 0L262 0L175 0L87 0L0 0Z" fill="#282828"></path><path d="M0 239L87 239L175 260L262 212L349 293L436 244L524 228L611 260L698 228L785 255L873 303L960 282L960 188L873 242L785 161L698 96L611 161L524 177L436 102L349 210L262 102L175 199L87 156L0 112Z" fill="#273331"></path><path d="M0 352L87 363L175 390L262 411L349 395L436 406L524 406L611 352L698 417L785 347L873 395L960 363L960 280L873 301L785 253L698 226L611 258L524 226L436 242L349 291L262 210L175 258L87 237L0 237Z" fill="#253f3a"></path><path d="M0 433L87 444L175 433L262 503L349 438L436 492L524 476L611 444L698 471L785 438L873 428L960 455L960 361L873 393L785 345L698 415L611 350L524 404L436 404L349 393L262 409L175 388L87 361L0 350Z" fill="#204a44"></path><path d="M0 541L87 541L175 541L262 541L349 541L436 541L524 541L611 541L698 541L785 541L873 541L960 541L960 453L873 426L785 436L698 469L611 442L524 474L436 490L349 436L262 501L175 431L87 442L0 431Z" fill="#16564e"></path></svg>